<svg width="1679" height="731" viewBox="0 0 1679 731" version="1.1" xmlns="http://www.w3.org/2000/svg" xmlns:xlink="http://www.w3.org/1999/xlink">
<title>main</title>
<desc>Created using Figma</desc>
<g id="Canvas" transform="translate(720 868)">
<clipPath id="clip-0" clip-rule="evenodd">
<path d="M -720 -868L 959 -868L 959 -137L -720 -137L -720 -868Z" fill="#FFFFFF"/>
</clipPath>
<g id="main" clip-path="url(#clip-0)">
<path d="M -720 -868L 959 -868L 959 -137L -720 -137L -720 -868Z" fill="#FFFFFF"/>
<clipPath id="clip-1" clip-rule="evenodd">
<path d="M -720 -868L 959 -868L 959 -664L -720 -664L -720 -868Z" fill="#FFFFFF"/>
</clipPath>
<g id="header" clip-path="url(#clip-1)">
<path d="M -720 -868L 959 -868L 959 -664L -720 -664L -720 -868Z" fill="#56CCF2"/>
<clipPath id="clip-2" clip-rule="evenodd">
<path d="M -720 -868L 959 -868L 959 -810L -720 -810L -720 -868Z" fill="#FFFFFF"/>
</clipPath>
<g id="nav" clip-path="url(#clip-2)">
<path d="M -720 -868L 959 -868L 959 -810L -720 -810L -720 -868Z" fill="#FFFFFF" fill-opacity="0.5"/>
<g id="Something else">
<use xlink:href="#path0_fill" transform="translate(263 -856)"/>
</g>
<g id="Something">
<use xlink:href="#path1_fill" transform="translate(-453 -856)"/>
</g>
</g>
<clipPath id="clip-3" clip-rule="evenodd">
<path d="M -438 -766L -269 -766L -269 -704L -438 -704L -438 -766Z" fill="#FFFFFF"/>
</clipPath>
<g id="LOGO" clip-path="url(#clip-3)">
<path d="M -438 -766L -269 -766L -269 -704L -438 -704L -438 -766Z" fill="#F2C94C"/>
</g>
<clipPath id="clip-4" clip-rule="evenodd">
<path d="M 274 -789L 659 -789L 659 -740L 274 -740L 274 -789Z" fill="#FFFFFF"/>
</clipPath>
<g id="title" clip-path="url(#clip-4)">
<path d="M 274 -789L 659 -789L 659 -740L 274 -740L 274 -789Z" fill="#FFFFFF"/>
</g>
<clipPath id="clip-5" clip-rule="evenodd">
<path d="M 336 -726L 692 -726L 692 -687L 336 -687L 336 -726Z" fill="#FFFFFF"/>
</clipPath>
<g id="search" clip-path="url(#clip-5)">
<path d="M 336 -726L 692 -726L 692 -687L 336 -687L 336 -726Z" fill="#FFFFFF"/>
<clipPath id="clip-6" clip-rule="evenodd">
<path d="M 434 -726L 692 -726L 692 -687L 434 -687L 434 -726Z" fill="#FFFFFF"/>
</clipPath>
<g id="real search" clip-path="url(#clip-6)">
<path d="M 434 -726L 692 -726L 692 -687L 434 -687L 434 -726Z" fill="#EB5757"/>
</g>
<clipPath id="clip-7" clip-rule="evenodd">
<path d="M 336 -726L 426 -726L 426 -687L 336 -687L 336 -726Z" fill="#FFFFFF"/>
</clipPath>
<g id="rank" clip-path="url(#clip-7)">
<path d="M 336 -726L 426 -726L 426 -687L 336 -687L 336 -726Z" fill="#EB5757"/>
</g>
</g>
</g>
<clipPath id="clip-8" clip-rule="evenodd">
<path d="M -467 -640L 692 -640L 692 -587L -467 -587L -467 -640Z" fill="#FFFFFF"/>
</clipPath>
<g id="classification" clip-path="url(#clip-8)">
<path d="M -467 -640L 692 -640L 692 -587L -467 -587L -467 -640Z" fill="#BDBDBD"/>
<clipPath id="clip-9" clip-rule="evenodd">
<path d="M -467 -632L -432 -632L -432 -595L -467 -595L -467 -632Z" fill="#FFFFFF"/>
</clipPath>
<g id="Frame" clip-path="url(#clip-9)">
<path d="M -467 -632L -432 -632L -432 -595L -467 -595L -467 -632Z" fill="#FFFFFF"/>
</g>
<clipPath id="clip-10" clip-rule="evenodd">
<path d="M -409 -632L -374 -632L -374 -595L -409 -595L -409 -632Z" fill="#FFFFFF"/>
</clipPath>
<g id="Frame" clip-path="url(#clip-10)">
<path d="M -409 -632L -374 -632L -374 -595L -409 -595L -409 -632Z" fill="#FFFFFF"/>
</g>
<clipPath id="clip-11" clip-rule="evenodd">
<path d="M -351 -632L -316 -632L -316 -595L -351 -595L -351 -632Z" fill="#FFFFFF"/>
</clipPath>
<g id="Frame" clip-path="url(#clip-11)">
<path d="M -351 -632L -316 -632L -316 -595L -351 -595L -351 -632Z" fill="#FFFFFF"/>
</g>
<clipPath id="clip-12" clip-rule="evenodd">
<path d="M -293 -632L -258 -632L -258 -595L -293 -595L -293 -632Z" fill="#FFFFFF"/>
</clipPath>
<g id="Frame" clip-path="url(#clip-12)">
<path d="M -293 -632L -258 -632L -258 -595L -293 -595L -293 -632Z" fill="#FFFFFF"/>
</g>
<clipPath id="clip-13" clip-rule="evenodd">
<path d="M -235 -632L -200 -632L -200 -595L -235 -595L -235 -632Z" fill="#FFFFFF"/>
</clipPath>
<g id="Frame" clip-path="url(#clip-13)">
<path d="M -235 -632L -200 -632L -200 -595L -235 -595L -235 -632Z" fill="#FFFFFF"/>
</g>
<clipPath id="clip-14" clip-rule="evenodd">
<path d="M -177 -632L -142 -632L -142 -595L -177 -595L -177 -632Z" fill="#FFFFFF"/>
</clipPath>
<g id="Frame" clip-path="url(#clip-14)">
<path d="M -177 -632L -142 -632L -142 -595L -177 -595L -177 -632Z" fill="#FFFFFF"/>
</g>
<clipPath id="clip-15" clip-rule="evenodd">
<path d="M -119 -632L -84 -632L -84 -595L -119 -595L -119 -632Z" fill="#FFFFFF"/>
</clipPath>
<g id="Frame" clip-path="url(#clip-15)">
<path d="M -119 -632L -84 -632L -84 -595L -119 -595L -119 -632Z" fill="#FFFFFF"/>
</g>
<clipPath id="clip-16" clip-rule="evenodd">
<path d="M -61 -632L -26 -632L -26 -595L -61 -595L -61 -632Z" fill="#FFFFFF"/>
</clipPath>
<g id="Frame" clip-path="url(#clip-16)">
<path d="M -61 -632L -26 -632L -26 -595L -61 -595L -61 -632Z" fill="#FFFFFF"/>
</g>
<clipPath id="clip-17" clip-rule="evenodd">
<path d="M -3 -632L 32 -632L 32 -595L -3 -595L -3 -632Z" fill="#FFFFFF"/>
</clipPath>
<g id="Frame" clip-path="url(#clip-17)">
<path d="M -3 -632L 32 -632L 32 -595L -3 -595L -3 -632Z" fill="#FFFFFF"/>
</g>
<clipPath id="clip-18" clip-rule="evenodd">
<path d="M 55 -632L 90 -632L 90 -595L 55 -595L 55 -632Z" fill="#FFFFFF"/>
</clipPath>
<g id="Frame" clip-path="url(#clip-18)">
<path d="M 55 -632L 90 -632L 90 -595L 55 -595L 55 -632Z" fill="#FFFFFF"/>
</g>
<clipPath id="clip-19" clip-rule="evenodd">
<path d="M 113 -632L 148 -632L 148 -595L 113 -595L 113 -632Z" fill="#FFFFFF"/>
</clipPath>
<g id="Frame" clip-path="url(#clip-19)">
<path d="M 113 -632L 148 -632L 148 -595L 113 -595L 113 -632Z" fill="#FFFFFF"/>
</g>
<clipPath id="clip-20" clip-rule="evenodd">
<path d="M 171 -632L 206 -632L 206 -595L 171 -595L 171 -632Z" fill="#FFFFFF"/>
</clipPath>
<g id="Frame" clip-path="url(#clip-20)">
<path d="M 171 -632L 206 -632L 206 -595L 171 -595L 171 -632Z" fill="#FFFFFF"/>
</g>
<clipPath id="clip-21" clip-rule="evenodd">
<path d="M 229 -632L 264 -632L 264 -595L 229 -595L 229 -632Z" fill="#FFFFFF"/>
</clipPath>
<g id="Frame" clip-path="url(#clip-21)">
<path d="M 229 -632L 264 -632L 264 -595L 229 -595L 229 -632Z" fill="#FFFFFF"/>
</g>
<clipPath id="clip-22" clip-rule="evenodd">
<path d="M 287 -632L 322 -632L 322 -595L 287 -595L 287 -632Z" fill="#FFFFFF"/>
</clipPath>
<g id="Frame" clip-path="url(#clip-22)">
<path d="M 287 -632L 322 -632L 322 -595L 287 -595L 287 -632Z" fill="#FFFFFF"/>
</g>
<clipPath id="clip-23" clip-rule="evenodd">
<path d="M 345 -632L 380 -632L 380 -595L 345 -595L 345 -632Z" fill="#FFFFFF"/>
</clipPath>
<g id="Frame" clip-path="url(#clip-23)">
<path d="M 345 -632L 380 -632L 380 -595L 345 -595L 345 -632Z" fill="#FFFFFF"/>
</g>
<clipPath id="clip-24" clip-rule="evenodd">
<path d="M 403 -632L 438 -632L 438 -595L 403 -595L 403 -632Z" fill="#FFFFFF"/>
</clipPath>
<g id="Frame" clip-path="url(#clip-24)">
<path d="M 403 -632L 438 -632L 438 -595L 403 -595L 403 -632Z" fill="#FFFFFF"/>
</g>
<clipPath id="clip-25" clip-rule="evenodd">
<path d="M 461 -632L 496 -632L 496 -595L 461 -595L 461 -632Z" fill="#FFFFFF"/>
</clipPath>
<g id="Frame" clip-path="url(#clip-25)">
<path d="M 461 -632L 496 -632L 496 -595L 461 -595L 461 -632Z" fill="#FFFFFF"/>
</g>
<clipPath id="clip-26" clip-rule="evenodd">
<path d="M 519 -632L 554 -632L 554 -595L 519 -595L 519 -632Z" fill="#FFFFFF"/>
</clipPath>
<g id="Frame" clip-path="url(#clip-26)">
<path d="M 519 -632L 554 -632L 554 -595L 519 -595L 519 -632Z" fill="#FFFFFF"/>
</g>
<clipPath id="clip-27" clip-rule="evenodd">
<path d="M 577 -632L 612 -632L 612 -595L 577 -595L 577 -632Z" fill="#FFFFFF"/>
</clipPath>
<g id="Frame" clip-path="url(#clip-27)">
<path d="M 577 -632L 612 -632L 612 -595L 577 -595L 577 -632Z" fill="#FFFFFF"/>
</g>
<clipPath id="clip-28" clip-rule="evenodd">
<path d="M 635 -632L 670 -632L 670 -595L 635 -595L 635 -632Z" fill="#FFFFFF"/>
</clipPath>
<g id="Frame" clip-path="url(#clip-28)">
<path d="M 635 -632L 670 -632L 670 -595L 635 -595L 635 -632Z" fill="#FFFFFF"/>
</g>
</g>
<clipPath id="clip-29" clip-rule="evenodd">
<path d="M -467 -565L 692 -565L 692 -380L -467 -380L -467 -565Z" fill="#FFFFFF"/>
</clipPath>
<g id="recommand" clip-path="url(#clip-29)">
<path d="M -467 -565L 692 -565L 692 -380L -467 -380L -467 -565Z" fill="#BDBDBD"/>
<clipPath id="clip-30" clip-rule="evenodd">
<path d="M -467 -567L -13 -567L -13 -380L -467 -380L -467 -567Z" fill="#FFFFFF"/>
</clipPath>
<g id="carousel" clip-path="url(#clip-30)">
<path d="M -467 -567L -13 -567L -13 -380L -467 -380L -467 -567Z" fill="#BB6BD9"/>
<clipPath id="clip-31" clip-rule="evenodd">
<path d="M -467 -423L -13 -423L -13 -380L -467 -380L -467 -423Z" fill="#FFFFFF"/>
</clipPath>
<g id="title" clip-path="url(#clip-31)">
<path d="M -467 -423L -13 -423L -13 -380L -467 -380L -467 -423Z" fill="#FFFFFF" fill-opacity="0.5"/>
</g>
<clipPath id="clip-32" clip-rule="evenodd">
<path d="M -195 -423L -13 -423L -13 -380L -195 -380L -195 -423Z" fill="#FFFFFF"/>
</clipPath>
<g id="choice" clip-path="url(#clip-32)">
<path d="M -195 -423L -13 -423L -13 -380L -195 -380L -195 -423Z" fill="#FFFFFF" fill-opacity="0.1"/>
</g>
</g>
<clipPath id="clip-33" clip-rule="evenodd">
<path d="M -13 -567L 692 -567L 692 -380L -13 -380L -13 -567Z" fill="#FFFFFF"/>
</clipPath>
<g id="content" clip-path="url(#clip-33)">
<path d="M -13 -567L 692 -567L 692 -380L -13 -380L -13 -567Z" fill="#FFFFFF" fill-opacity="0.8"/>
<clipPath id="clip-34" clip-rule="evenodd">
<path d="M 10 -556L 159 -556L 159 -483L 10 -483L 10 -556Z" fill="#FFFFFF"/>
</clipPath>
<g id="Frame" clip-path="url(#clip-34)">
<path d="M 10 -556L 159 -556L 159 -483L 10 -483L 10 -556Z" fill="#FFFFFF"/>
</g>
<clipPath id="clip-35" clip-rule="evenodd">
<path d="M 10 -464L 159 -464L 159 -391L 10 -391L 10 -464Z" fill="#FFFFFF"/>
</clipPath>
<g id="Frame" clip-path="url(#clip-35)">
<path d="M 10 -464L 159 -464L 159 -391L 10 -391L 10 -464Z" fill="#FFFFFF"/>
</g>
<clipPath id="clip-36" clip-rule="evenodd">
<path d="M 182 -556L 331 -556L 331 -483L 182 -483L 182 -556Z" fill="#FFFFFF"/>
</clipPath>
<g id="Frame" clip-path="url(#clip-36)">
<path d="M 182 -556L 331 -556L 331 -483L 182 -483L 182 -556Z" fill="#FFFFFF"/>
</g>
<clipPath id="clip-37" clip-rule="evenodd">
<path d="M 182 -464L 331 -464L 331 -391L 182 -391L 182 -464Z" fill="#FFFFFF"/>
</clipPath>
<g id="Frame" clip-path="url(#clip-37)">
<path d="M 182 -464L 331 -464L 331 -391L 182 -391L 182 -464Z" fill="#FFFFFF"/>
</g>
<clipPath id="clip-38" clip-rule="evenodd">
<path d="M 354 -555L 503 -555L 503 -482L 354 -482L 354 -555Z" fill="#FFFFFF"/>
</clipPath>
<g id="Frame" clip-path="url(#clip-38)">
<path d="M 354 -555L 503 -555L 503 -482L 354 -482L 354 -555Z" fill="#FFFFFF"/>
</g>
<clipPath id="clip-39" clip-rule="evenodd">
<path d="M 354 -463L 503 -463L 503 -390L 354 -390L 354 -463Z" fill="#FFFFFF"/>
</clipPath>
<g id="Frame" clip-path="url(#clip-39)">
<path d="M 354 -463L 503 -463L 503 -390L 354 -390L 354 -463Z" fill="#FFFFFF"/>
</g>
<clipPath id="clip-40" clip-rule="evenodd">
<path d="M 526 -556L 675 -556L 675 -483L 526 -483L 526 -556Z" fill="#FFFFFF"/>
</clipPath>
<g id="Frame" clip-path="url(#clip-40)">
<path d="M 526 -556L 675 -556L 675 -483L 526 -483L 526 -556Z" fill="#FFFFFF"/>
</g>
<clipPath id="clip-41" clip-rule="evenodd">
<path d="M 526 -464L 675 -464L 675 -391L 526 -391L 526 -464Z" fill="#FFFFFF"/>
</clipPath>
<g id="Frame" clip-path="url(#clip-41)">
<path d="M 526 -464L 675 -464L 675 -391L 526 -391L 526 -464Z" fill="#FFFFFF"/>
</g>
</g>
</g>
<clipPath id="clip-42" clip-rule="evenodd">
<path d="M -467 -353L 692 -353L 692 -148L -467 -148L -467 -353Z" fill="#FFFFFF"/>
</clipPath>
<g id="recommand for money" clip-path="url(#clip-42)">
<path d="M -467 -353L 692 -353L 692 -148L -467 -148L -467 -353Z" fill="#BDBDBD"/>
<clipPath id="clip-43" clip-rule="evenodd">
<path d="M -467 -353L 692 -353L 692 -301L -467 -301L -467 -353Z" fill="#FFFFFF"/>
</clipPath>
<g id="title" clip-path="url(#clip-43)">
<path d="M -467 -353L 692 -353L 692 -301L -467 -301L -467 -353Z" fill="#FFFFFF" fill-opacity="0.8"/>
<clipPath id="clip-44" clip-rule="evenodd">
<path d="M -467 -347L -246 -347L -246 -308L -467 -308L -467 -347Z" fill="#FFFFFF"/>
</clipPath>
<g id="name" clip-path="url(#clip-44)">
<path d="M -467 -347L -246 -347L -246 -308L -467 -308L -467 -347Z" fill="#2F80ED"/>
</g>
<clipPath id="clip-45" clip-rule="evenodd">
<path d="M 393 -347L 673 -347L 673 -308L 393 -308L 393 -347Z" fill="#FFFFFF"/>
</clipPath>
<g id="# of people" clip-path="url(#clip-45)">
<path d="M 393 -347L 673 -347L 673 -308L 393 -308L 393 -347Z" fill="#E0E0E0"/>
</g>
</g>
<clipPath id="clip-46" clip-rule="evenodd">
<path d="M -467 -301L 692 -301L 692 -148L -467 -148L -467 -301Z" fill="#FFFFFF"/>
</clipPath>
<g id="content" clip-path="url(#clip-46)">
<path d="M -467 -301L 692 -301L 692 -148L -467 -148L -467 -301Z" fill="#FFFFFF" fill-opacity="0.6"/>
<clipPath id="clip-47" clip-rule="evenodd">
<path d="M 393 -292L 673 -292L 673 -157L 393 -157L 393 -292Z" fill="#FFFFFF"/>
</clipPath>
<g id="advertisement" clip-path="url(#clip-47)">
<path d="M 393 -292L 673 -292L 673 -157L 393 -157L 393 -292Z" fill="#FFFFFF"/>
</g>
<clipPath id="clip-48" clip-rule="evenodd">
<path d="M -467 -292L -327 -292L -327 -157L -467 -157L -467 -292Z" fill="#FFFFFF"/>
</clipPath>
<g id="item" clip-path="url(#clip-48)">
<path d="M -467 -292L -327 -292L -327 -157L -467 -157L -467 -292Z" fill="#FFFFFF"/>
<clipPath id="clip-49" clip-rule="evenodd">
<path d="M -467 -292L -327 -292L -327 -207L -467 -207L -467 -292Z" fill="#FFFFFF"/>
</clipPath>
<g id="img" clip-path="url(#clip-49)">
<path d="M -467 -292L -327 -292L -327 -207L -467 -207L -467 -292Z" fill="#2D9CDB"/>
</g>
<clipPath id="clip-50" clip-rule="evenodd">
<path d="M -467 -203L -327 -203L -327 -157L -467 -157L -467 -203Z" fill="#FFFFFF"/>
</clipPath>
<g id="title" clip-path="url(#clip-50)">
<path d="M -467 -203L -327 -203L -327 -157L -467 -157L -467 -203Z" fill="#333333"/>
</g>
</g>
<clipPath id="clip-51" clip-rule="evenodd">
<path d="M -123 -292L 17 -292L 17 -157L -123 -157L -123 -292Z" fill="#FFFFFF"/>
</clipPath>
<g id="item" clip-path="url(#clip-51)">
<path d="M -123 -292L 17 -292L 17 -157L -123 -157L -123 -292Z" fill="#FFFFFF"/>
<clipPath id="clip-52" clip-rule="evenodd">
<path d="M -123 -292L 17 -292L 17 -207L -123 -207L -123 -292Z" fill="#FFFFFF"/>
</clipPath>
<g id="img" clip-path="url(#clip-52)">
<path d="M -123 -292L 17 -292L 17 -207L -123 -207L -123 -292Z" fill="#2D9CDB"/>
</g>
<clipPath id="clip-53" clip-rule="evenodd">
<path d="M -123 -203L 17 -203L 17 -157L -123 -157L -123 -203Z" fill="#FFFFFF"/>
</clipPath>
<g id="title" clip-path="url(#clip-53)">
<path d="M -123 -203L 17 -203L 17 -157L -123 -157L -123 -203Z" fill="#333333"/>
</g>
</g>
<clipPath id="clip-54" clip-rule="evenodd">
<path d="M -295 -292L -155 -292L -155 -157L -295 -157L -295 -292Z" fill="#FFFFFF"/>
</clipPath>
<g id="item" clip-path="url(#clip-54)">
<path d="M -295 -292L -155 -292L -155 -157L -295 -157L -295 -292Z" fill="#FFFFFF"/>
<clipPath id="clip-55" clip-rule="evenodd">
<path d="M -295 -292L -155 -292L -155 -207L -295 -207L -295 -292Z" fill="#FFFFFF"/>
</clipPath>
<g id="img" clip-path="url(#clip-55)">
<path d="M -295 -292L -155 -292L -155 -207L -295 -207L -295 -292Z" fill="#2D9CDB"/>
</g>
<clipPath id="clip-56" clip-rule="evenodd">
<path d="M -295 -203L -155 -203L -155 -157L -295 -157L -295 -203Z" fill="#FFFFFF"/>
</clipPath>
<g id="title" clip-path="url(#clip-56)">
<path d="M -295 -203L -155 -203L -155 -157L -295 -157L -295 -203Z" fill="#333333"/>
</g>
</g>
<clipPath id="clip-57" clip-rule="evenodd">
<path d="M 49 -292L 189 -292L 189 -157L 49 -157L 49 -292Z" fill="#FFFFFF"/>
</clipPath>
<g id="item" clip-path="url(#clip-57)">
<path d="M 49 -292L 189 -292L 189 -157L 49 -157L 49 -292Z" fill="#FFFFFF"/>
<clipPath id="clip-58" clip-rule="evenodd">
<path d="M 49 -292L 189 -292L 189 -207L 49 -207L 49 -292Z" fill="#FFFFFF"/>
</clipPath>
<g id="img" clip-path="url(#clip-58)">
<path d="M 49 -292L 189 -292L 189 -207L 49 -207L 49 -292Z" fill="#2D9CDB"/>
</g>
<clipPath id="clip-59" clip-rule="evenodd">
<path d="M 49 -203L 189 -203L 189 -157L 49 -157L 49 -203Z" fill="#FFFFFF"/>
</clipPath>
<g id="title" clip-path="url(#clip-59)">
<path d="M 49 -203L 189 -203L 189 -157L 49 -157L 49 -203Z" fill="#333333"/>
</g>
</g>
<clipPath id="clip-60" clip-rule="evenodd">
<path d="M 221 -292L 361 -292L 361 -157L 221 -157L 221 -292Z" fill="#FFFFFF"/>
</clipPath>
<g id="item" clip-path="url(#clip-60)">
<path d="M 221 -292L 361 -292L 361 -157L 221 -157L 221 -292Z" fill="#FFFFFF"/>
<clipPath id="clip-61" clip-rule="evenodd">
<path d="M 221 -292L 361 -292L 361 -207L 221 -207L 221 -292Z" fill="#FFFFFF"/>
</clipPath>
<g id="img" clip-path="url(#clip-61)">
<path d="M 221 -292L 361 -292L 361 -207L 221 -207L 221 -292Z" fill="#2D9CDB"/>
</g>
<clipPath id="clip-62" clip-rule="evenodd">
<path d="M 221 -203L 361 -203L 361 -157L 221 -157L 221 -203Z" fill="#FFFFFF"/>
</clipPath>
<g id="title" clip-path="url(#clip-62)">
<path d="M 221 -203L 361 -203L 361 -157L 221 -157L 221 -203Z" fill="#333333"/>
</g>
</g>
</g>
</g>
</g>
</g>
<defs>
<path id="path0_fill" d="M 7.00781 18.3945C 5.07812 17.8398 3.67188 17.1602 2.78906 16.3555C 1.91406 15.543 1.47656 14.543 1.47656 13.3555C 1.47656 12.0117 2.01172 10.9023 3.08203 10.0273C 4.16016 9.14453 5.55859 8.70312 7.27734 8.70312C 8.44922 8.70312 9.49219 8.92969 10.4062 9.38281C 11.3281 9.83594 12.0391 10.4609 12.5391 11.2578C 13.0469 12.0547 13.3008 12.9258 13.3008 13.8711L 11.0391 13.8711C 11.0391 12.8398 10.7109 12.0312 10.0547 11.4453C 9.39844 10.8516 8.47266 10.5547 7.27734 10.5547C 6.16797 10.5547 5.30078 10.8008 4.67578 11.293C 4.05859 11.7773 3.75 12.4531 3.75 13.3203C 3.75 14.0156 4.04297 14.6055 4.62891 15.0898C 5.22266 15.5664 6.22656 16.0039 7.64062 16.4023C 9.0625 16.8008 10.1719 17.2422 10.9688 17.7266C 11.7734 18.2031 12.3672 18.7617 12.75 19.4023C 13.1406 20.043 13.3359 20.7969 13.3359 21.6641C 13.3359 23.0469 12.7969 24.1562 11.7188 24.9922C 10.6406 25.8203 9.19922 26.2344 7.39453 26.2344C 6.22266 26.2344 5.12891 26.0117 4.11328 25.5664C 3.09766 25.1133 2.3125 24.4961 1.75781 23.7148C 1.21094 22.9336 0.9375 22.0469 0.9375 21.0547L 3.19922 21.0547C 3.19922 22.0859 3.57812 22.9023 4.33594 23.5039C 5.10156 24.0977 6.12109 24.3945 7.39453 24.3945C 8.58203 24.3945 9.49219 24.1523 10.125 23.668C 10.7578 23.1836 11.0742 22.5234 11.0742 21.6875C 11.0742 20.8516 10.7812 20.207 10.1953 19.7539C 9.60938 19.293 8.54688 18.8398 7.00781 18.3945ZM 15.3164 19.543C 15.3164 18.3008 15.5586 17.1836 16.043 16.1914C 16.5352 15.1992 17.2148 14.4336 18.082 13.8945C 18.957 13.3555 19.9531 13.0859 21.0703 13.0859C 22.7969 13.0859 24.1914 13.6836 25.2539 14.8789C 26.3242 16.0742 26.8594 17.6641 26.8594 19.6484L 26.8594 19.8008C 26.8594 21.0352 26.6211 22.1445 26.1445 23.1289C 25.6758 24.1055 25 24.8672 24.1172 25.4141C 23.2422 25.9609 22.2344 26.2344 21.0938 26.2344C 19.375 26.2344 17.9805 25.6367 16.9102 24.4414C 15.8477 23.2461 15.3164 21.6641 15.3164 19.6953L 15.3164 19.543ZM 17.4961 19.8008C 17.4961 21.207 17.8203 22.3359 18.4688 23.1875C 19.125 24.0391 20 24.4648 21.0938 24.4648C 22.1953 24.4648 23.0703 24.0352 23.7188 23.1758C 24.3672 22.3086 24.6914 21.0977 24.6914 19.543C 24.6914 18.1523 24.3594 17.0273 23.6953 16.168C 23.0391 15.3008 22.1641 14.8672 21.0703 14.8672C 20 14.8672 19.1367 15.293 18.4805 16.1445C 17.8242 16.9961 17.4961 18.2148 17.4961 19.8008ZM 31.6172 13.3203L 31.6758 14.7266C 32.6055 13.6328 33.8594 13.0859 35.4375 13.0859C 37.2109 13.0859 38.418 13.7656 39.0586 15.125C 39.4805 14.5156 40.0273 14.0234 40.6992 13.6484C 41.3789 13.2734 42.1797 13.0859 43.1016 13.0859C 45.8828 13.0859 47.2969 14.5586 47.3438 17.5039L 47.3438 26L 45.1758 26L 45.1758 17.6328C 45.1758 16.7266 44.9688 16.0508 44.5547 15.6055C 44.1406 15.1523 43.4453 14.9258 42.4688 14.9258C 41.6641 14.9258 40.9961 15.168 40.4648 15.6523C 39.9336 16.1289 39.625 16.7734 39.5391 17.5859L 39.5391 26L 37.3594 26L 37.3594 17.6914C 37.3594 15.8477 36.457 14.9258 34.6523 14.9258C 33.2305 14.9258 32.2578 15.5312 31.7344 16.7422L 31.7344 26L 29.5664 26L 29.5664 13.3203L 31.6172 13.3203ZM 55.8867 26.2344C 54.168 26.2344 52.7695 25.6719 51.6914 24.5469C 50.6133 23.4141 50.0742 21.9023 50.0742 20.0117L 50.0742 19.6133C 50.0742 18.3555 50.3125 17.2344 50.7891 16.25C 51.2734 15.2578 51.9453 14.4844 52.8047 13.9297C 53.6719 13.3672 54.6094 13.0859 55.6172 13.0859C 57.2656 13.0859 58.5469 13.6289 59.4609 14.7148C 60.375 15.8008 60.832 17.3555 60.832 19.3789L 60.832 20.2812L 52.2422 20.2812C 52.2734 21.5312 52.6367 22.543 53.332 23.3164C 54.0352 24.082 54.9258 24.4648 56.0039 24.4648C 56.7695 24.4648 57.418 24.3086 57.9492 23.9961C 58.4805 23.6836 58.9453 23.2695 59.3438 22.7539L 60.668 23.7852C 59.6055 25.418 58.0117 26.2344 55.8867 26.2344ZM 55.6172 14.8672C 54.7422 14.8672 54.0078 15.1875 53.4141 15.8281C 52.8203 16.4609 52.4531 17.3516 52.3125 18.5L 58.6641 18.5L 58.6641 18.3359C 58.6016 17.2344 58.3047 16.3828 57.7734 15.7812C 57.2422 15.1719 56.5234 14.8672 55.6172 14.8672ZM 66.293 10.25L 66.293 13.3203L 68.6602 13.3203L 68.6602 14.9961L 66.293 14.9961L 66.293 22.8594C 66.293 23.3672 66.3984 23.75 66.6094 24.0078C 66.8203 24.2578 67.1797 24.3828 67.6875 24.3828C 67.9375 24.3828 68.2812 24.3359 68.7188 24.2422L 68.7188 26C 68.1484 26.1562 67.5938 26.2344 67.0547 26.2344C 66.0859 26.2344 65.3555 25.9414 64.8633 25.3555C 64.3711 24.7695 64.125 23.9375 64.125 22.8594L 64.125 14.9961L 61.8164 14.9961L 61.8164 13.3203L 64.125 13.3203L 64.125 10.25L 66.293 10.25ZM 73.3711 14.8555C 74.332 13.6758 75.582 13.0859 77.1211 13.0859C 79.8008 13.0859 81.1523 14.5977 81.1758 17.6211L 81.1758 26L 79.0078 26L 79.0078 17.6094C 79 16.6953 78.7891 16.0195 78.375 15.582C 77.9688 15.1445 77.332 14.9258 76.4648 14.9258C 75.7617 14.9258 75.1445 15.1133 74.6133 15.4883C 74.082 15.8633 73.668 16.3555 73.3711 16.9648L 73.3711 26L 71.2031 26L 71.2031 8L 73.3711 8L 73.3711 14.8555ZM 86.7773 26L 84.6094 26L 84.6094 13.3203L 86.7773 13.3203L 86.7773 26ZM 84.4336 9.95703C 84.4336 9.60547 84.5391 9.30859 84.75 9.06641C 84.9688 8.82422 85.2891 8.70312 85.7109 8.70312C 86.1328 8.70312 86.4531 8.82422 86.6719 9.06641C 86.8906 9.30859 87 9.60547 87 9.95703C 87 10.3086 86.8906 10.6016 86.6719 10.8359C 86.4531 11.0703 86.1328 11.1875 85.7109 11.1875C 85.2891 11.1875 84.9688 11.0703 84.75 10.8359C 84.5391 10.6016 84.4336 10.3086 84.4336 9.95703ZM 92.3086 13.3203L 92.3789 14.9141C 93.3477 13.6953 94.6133 13.0859 96.1758 13.0859C 98.8555 13.0859 100.207 14.5977 100.23 17.6211L 100.23 26L 98.0625 26L 98.0625 17.6094C 98.0547 16.6953 97.8438 16.0195 97.4297 15.582C 97.0234 15.1445 96.3867 14.9258 95.5195 14.9258C 94.8164 14.9258 94.1992 15.1133 93.668 15.4883C 93.1367 15.8633 92.7227 16.3555 92.4258 16.9648L 92.4258 26L 90.2578 26L 90.2578 13.3203L 92.3086 13.3203ZM 102.984 19.5547C 102.984 17.5781 103.441 16.0078 104.355 14.8438C 105.27 13.6719 106.48 13.0859 107.988 13.0859C 109.535 13.0859 110.742 13.6328 111.609 14.7266L 111.715 13.3203L 113.695 13.3203L 113.695 25.6953C 113.695 27.3359 113.207 28.6289 112.23 29.5742C 111.262 30.5195 109.957 30.9922 108.316 30.9922C 107.402 30.9922 106.508 30.7969 105.633 30.4062C 104.758 30.0156 104.09 29.4805 103.629 28.8008L 104.754 27.5C 105.684 28.6484 106.82 29.2227 108.164 29.2227C 109.219 29.2227 110.039 28.9258 110.625 28.332C 111.219 27.7383 111.516 26.9023 111.516 25.8242L 111.516 24.7344C 110.648 25.7344 109.465 26.2344 107.965 26.2344C 106.48 26.2344 105.277 25.6367 104.355 24.4414C 103.441 23.2461 102.984 21.6172 102.984 19.5547ZM 105.164 19.8008C 105.164 21.2305 105.457 22.3555 106.043 23.1758C 106.629 23.9883 107.449 24.3945 108.504 24.3945C 109.871 24.3945 110.875 23.7734 111.516 22.5312L 111.516 16.7422C 110.852 15.5312 109.855 14.9258 108.527 14.9258C 107.473 14.9258 106.648 15.3359 106.055 16.1562C 105.461 16.9766 105.164 18.1914 105.164 19.8008ZM 128.191 26.2344C 126.473 26.2344 125.074 25.6719 123.996 24.5469C 122.918 23.4141 122.379 21.9023 122.379 20.0117L 122.379 19.6133C 122.379 18.3555 122.617 17.2344 123.094 16.25C 123.578 15.2578 124.25 14.4844 125.109 13.9297C 125.977 13.3672 126.914 13.0859 127.922 13.0859C 129.57 13.0859 130.852 13.6289 131.766 14.7148C 132.68 15.8008 133.137 17.3555 133.137 19.3789L 133.137 20.2812L 124.547 20.2812C 124.578 21.5312 124.941 22.543 125.637 23.3164C 126.34 24.082 127.23 24.4648 128.309 24.4648C 129.074 24.4648 129.723 24.3086 130.254 23.9961C 130.785 23.6836 131.25 23.2695 131.648 22.7539L 132.973 23.7852C 131.91 25.418 130.316 26.2344 128.191 26.2344ZM 127.922 14.8672C 127.047 14.8672 126.312 15.1875 125.719 15.8281C 125.125 16.4609 124.758 17.3516 124.617 18.5L 130.969 18.5L 130.969 18.3359C 130.906 17.2344 130.609 16.3828 130.078 15.7812C 129.547 15.1719 128.828 14.8672 127.922 14.8672ZM 138.012 26L 135.844 26L 135.844 8L 138.012 8L 138.012 26ZM 148.875 22.6367C 148.875 22.0508 148.652 21.5977 148.207 21.2773C 147.77 20.9492 147 20.668 145.898 20.4336C 144.805 20.1992 143.934 19.918 143.285 19.5898C 142.645 19.2617 142.168 18.8711 141.855 18.418C 141.551 17.9648 141.398 17.4258 141.398 16.8008C 141.398 15.7617 141.836 14.8828 142.711 14.1641C 143.594 13.4453 144.719 13.0859 146.086 13.0859C 147.523 13.0859 148.688 13.457 149.578 14.1992C 150.477 14.9414 150.926 15.8906 150.926 17.0469L 148.746 17.0469C 148.746 16.4531 148.492 15.9414 147.984 15.5117C 147.484 15.082 146.852 14.8672 146.086 14.8672C 145.297 14.8672 144.68 15.0391 144.234 15.3828C 143.789 15.7266 143.566 16.1758 143.566 16.7305C 143.566 17.2539 143.773 17.6484 144.188 17.9141C 144.602 18.1797 145.348 18.4336 146.426 18.6758C 147.512 18.918 148.391 19.207 149.062 19.543C 149.734 19.8789 150.23 20.2852 150.551 20.7617C 150.879 21.2305 151.043 21.8047 151.043 22.4844C 151.043 23.6172 150.59 24.5273 149.684 25.2148C 148.777 25.8945 147.602 26.2344 146.156 26.2344C 145.141 26.2344 144.242 26.0547 143.461 25.6953C 142.68 25.3359 142.066 24.8359 141.621 24.1953C 141.184 23.5469 140.965 22.8477 140.965 22.0977L 143.133 22.0977C 143.172 22.8242 143.461 23.4023 144 23.832C 144.547 24.2539 145.266 24.4648 146.156 24.4648C 146.977 24.4648 147.633 24.3008 148.125 23.9727C 148.625 23.6367 148.875 23.1914 148.875 22.6367ZM 159.129 26.2344C 157.41 26.2344 156.012 25.6719 154.934 24.5469C 153.855 23.4141 153.316 21.9023 153.316 20.0117L 153.316 19.6133C 153.316 18.3555 153.555 17.2344 154.031 16.25C 154.516 15.2578 155.188 14.4844 156.047 13.9297C 156.914 13.3672 157.852 13.0859 158.859 13.0859C 160.508 13.0859 161.789 13.6289 162.703 14.7148C 163.617 15.8008 164.074 17.3555 164.074 19.3789L 164.074 20.2812L 155.484 20.2812C 155.516 21.5312 155.879 22.543 156.574 23.3164C 157.277 24.082 158.168 24.4648 159.246 24.4648C 160.012 24.4648 160.66 24.3086 161.191 23.9961C 161.723 23.6836 162.188 23.2695 162.586 22.7539L 163.91 23.7852C 162.848 25.418 161.254 26.2344 159.129 26.2344ZM 158.859 14.8672C 157.984 14.8672 157.25 15.1875 156.656 15.8281C 156.062 16.4609 155.695 17.3516 155.555 18.5L 161.906 18.5L 161.906 18.3359C 161.844 17.2344 161.547 16.3828 161.016 15.7812C 160.484 15.1719 159.766 14.8672 158.859 14.8672Z"/>
<path id="path1_fill" d="M 7.00781 18.3945C 5.07812 17.8398 3.67188 17.1602 2.78906 16.3555C 1.91406 15.543 1.47656 14.543 1.47656 13.3555C 1.47656 12.0117 2.01172 10.9023 3.08203 10.0273C 4.16016 9.14453 5.55859 8.70312 7.27734 8.70312C 8.44922 8.70312 9.49219 8.92969 10.4062 9.38281C 11.3281 9.83594 12.0391 10.4609 12.5391 11.2578C 13.0469 12.0547 13.3008 12.9258 13.3008 13.8711L 11.0391 13.8711C 11.0391 12.8398 10.7109 12.0312 10.0547 11.4453C 9.39844 10.8516 8.47266 10.5547 7.27734 10.5547C 6.16797 10.5547 5.30078 10.8008 4.67578 11.293C 4.05859 11.7773 3.75 12.4531 3.75 13.3203C 3.75 14.0156 4.04297 14.6055 4.62891 15.0898C 5.22266 15.5664 6.22656 16.0039 7.64062 16.4023C 9.0625 16.8008 10.1719 17.2422 10.9688 17.7266C 11.7734 18.2031 12.3672 18.7617 12.75 19.4023C 13.1406 20.043 13.3359 20.7969 13.3359 21.6641C 13.3359 23.0469 12.7969 24.1562 11.7188 24.9922C 10.6406 25.8203 9.19922 26.2344 7.39453 26.2344C 6.22266 26.2344 5.12891 26.0117 4.11328 25.5664C 3.09766 25.1133 2.3125 24.4961 1.75781 23.7148C 1.21094 22.9336 0.9375 22.0469 0.9375 21.0547L 3.19922 21.0547C 3.19922 22.0859 3.57812 22.9023 4.33594 23.5039C 5.10156 24.0977 6.12109 24.3945 7.39453 24.3945C 8.58203 24.3945 9.49219 24.1523 10.125 23.668C 10.7578 23.1836 11.0742 22.5234 11.0742 21.6875C 11.0742 20.8516 10.7812 20.207 10.1953 19.7539C 9.60938 19.293 8.54688 18.8398 7.00781 18.3945ZM 15.3164 19.543C 15.3164 18.3008 15.5586 17.1836 16.043 16.1914C 16.5352 15.1992 17.2148 14.4336 18.082 13.8945C 18.957 13.3555 19.9531 13.0859 21.0703 13.0859C 22.7969 13.0859 24.1914 13.6836 25.2539 14.8789C 26.3242 16.0742 26.8594 17.6641 26.8594 19.6484L 26.8594 19.8008C 26.8594 21.0352 26.6211 22.1445 26.1445 23.1289C 25.6758 24.1055 25 24.8672 24.1172 25.4141C 23.2422 25.9609 22.2344 26.2344 21.0938 26.2344C 19.375 26.2344 17.9805 25.6367 16.9102 24.4414C 15.8477 23.2461 15.3164 21.6641 15.3164 19.6953L 15.3164 19.543ZM 17.4961 19.8008C 17.4961 21.207 17.8203 22.3359 18.4688 23.1875C 19.125 24.0391 20 24.4648 21.0938 24.4648C 22.1953 24.4648 23.0703 24.0352 23.7188 23.1758C 24.3672 22.3086 24.6914 21.0977 24.6914 19.543C 24.6914 18.1523 24.3594 17.0273 23.6953 16.168C 23.0391 15.3008 22.1641 14.8672 21.0703 14.8672C 20 14.8672 19.1367 15.293 18.4805 16.1445C 17.8242 16.9961 17.4961 18.2148 17.4961 19.8008ZM 31.6172 13.3203L 31.6758 14.7266C 32.6055 13.6328 33.8594 13.0859 35.4375 13.0859C 37.2109 13.0859 38.418 13.7656 39.0586 15.125C 39.4805 14.5156 40.0273 14.0234 40.6992 13.6484C 41.3789 13.2734 42.1797 13.0859 43.1016 13.0859C 45.8828 13.0859 47.2969 14.5586 47.3438 17.5039L 47.3438 26L 45.1758 26L 45.1758 17.6328C 45.1758 16.7266 44.9688 16.0508 44.5547 15.6055C 44.1406 15.1523 43.4453 14.9258 42.4688 14.9258C 41.6641 14.9258 40.9961 15.168 40.4648 15.6523C 39.9336 16.1289 39.625 16.7734 39.5391 17.5859L 39.5391 26L 37.3594 26L 37.3594 17.6914C 37.3594 15.8477 36.457 14.9258 34.6523 14.9258C 33.2305 14.9258 32.2578 15.5312 31.7344 16.7422L 31.7344 26L 29.5664 26L 29.5664 13.3203L 31.6172 13.3203ZM 55.8867 26.2344C 54.168 26.2344 52.7695 25.6719 51.6914 24.5469C 50.6133 23.4141 50.0742 21.9023 50.0742 20.0117L 50.0742 19.6133C 50.0742 18.3555 50.3125 17.2344 50.7891 16.25C 51.2734 15.2578 51.9453 14.4844 52.8047 13.9297C 53.6719 13.3672 54.6094 13.0859 55.6172 13.0859C 57.2656 13.0859 58.5469 13.6289 59.4609 14.7148C 60.375 15.8008 60.832 17.3555 60.832 19.3789L 60.832 20.2812L 52.2422 20.2812C 52.2734 21.5312 52.6367 22.543 53.332 23.3164C 54.0352 24.082 54.9258 24.4648 56.0039 24.4648C 56.7695 24.4648 57.418 24.3086 57.9492 23.9961C 58.4805 23.6836 58.9453 23.2695 59.3438 22.7539L 60.668 23.7852C 59.6055 25.418 58.0117 26.2344 55.8867 26.2344ZM 55.6172 14.8672C 54.7422 14.8672 54.0078 15.1875 53.4141 15.8281C 52.8203 16.4609 52.4531 17.3516 52.3125 18.5L 58.6641 18.5L 58.6641 18.3359C 58.6016 17.2344 58.3047 16.3828 57.7734 15.7812C 57.2422 15.1719 56.5234 14.8672 55.6172 14.8672ZM 66.293 10.25L 66.293 13.3203L 68.6602 13.3203L 68.6602 14.9961L 66.293 14.9961L 66.293 22.8594C 66.293 23.3672 66.3984 23.75 66.6094 24.0078C 66.8203 24.2578 67.1797 24.3828 67.6875 24.3828C 67.9375 24.3828 68.2812 24.3359 68.7188 24.2422L 68.7188 26C 68.1484 26.1562 67.5938 26.2344 67.0547 26.2344C 66.0859 26.2344 65.3555 25.9414 64.8633 25.3555C 64.3711 24.7695 64.125 23.9375 64.125 22.8594L 64.125 14.9961L 61.8164 14.9961L 61.8164 13.3203L 64.125 13.3203L 64.125 10.25L 66.293 10.25ZM 73.3711 14.8555C 74.332 13.6758 75.582 13.0859 77.1211 13.0859C 79.8008 13.0859 81.1523 14.5977 81.1758 17.6211L 81.1758 26L 79.0078 26L 79.0078 17.6094C 79 16.6953 78.7891 16.0195 78.375 15.582C 77.9688 15.1445 77.332 14.9258 76.4648 14.9258C 75.7617 14.9258 75.1445 15.1133 74.6133 15.4883C 74.082 15.8633 73.668 16.3555 73.3711 16.9648L 73.3711 26L 71.2031 26L 71.2031 8L 73.3711 8L 73.3711 14.8555ZM 86.7773 26L 84.6094 26L 84.6094 13.3203L 86.7773 13.3203L 86.7773 26ZM 84.4336 9.95703C 84.4336 9.60547 84.5391 9.30859 84.75 9.06641C 84.9688 8.82422 85.2891 8.70312 85.7109 8.70312C 86.1328 8.70312 86.4531 8.82422 86.6719 9.06641C 86.8906 9.30859 87 9.60547 87 9.95703C 87 10.3086 86.8906 10.6016 86.6719 10.8359C 86.4531 11.0703 86.1328 11.1875 85.7109 11.1875C 85.2891 11.1875 84.9688 11.0703 84.75 10.8359C 84.5391 10.6016 84.4336 10.3086 84.4336 9.95703ZM 92.3086 13.3203L 92.3789 14.9141C 93.3477 13.6953 94.6133 13.0859 96.1758 13.0859C 98.8555 13.0859 100.207 14.5977 100.23 17.6211L 100.23 26L 98.0625 26L 98.0625 17.6094C 98.0547 16.6953 97.8438 16.0195 97.4297 15.582C 97.0234 15.1445 96.3867 14.9258 95.5195 14.9258C 94.8164 14.9258 94.1992 15.1133 93.668 15.4883C 93.1367 15.8633 92.7227 16.3555 92.4258 16.9648L 92.4258 26L 90.2578 26L 90.2578 13.3203L 92.3086 13.3203ZM 102.984 19.5547C 102.984 17.5781 103.441 16.0078 104.355 14.8438C 105.27 13.6719 106.48 13.0859 107.988 13.0859C 109.535 13.0859 110.742 13.6328 111.609 14.7266L 111.715 13.3203L 113.695 13.3203L 113.695 25.6953C 113.695 27.3359 113.207 28.6289 112.23 29.5742C 111.262 30.5195 109.957 30.9922 108.316 30.9922C 107.402 30.9922 106.508 30.7969 105.633 30.4062C 104.758 30.0156 104.09 29.4805 103.629 28.8008L 104.754 27.5C 105.684 28.6484 106.82 29.2227 108.164 29.2227C 109.219 29.2227 110.039 28.9258 110.625 28.332C 111.219 27.7383 111.516 26.9023 111.516 25.8242L 111.516 24.7344C 110.648 25.7344 109.465 26.2344 107.965 26.2344C 106.48 26.2344 105.277 25.6367 104.355 24.4414C 103.441 23.2461 102.984 21.6172 102.984 19.5547ZM 105.164 19.8008C 105.164 21.2305 105.457 22.3555 106.043 23.1758C 106.629 23.9883 107.449 24.3945 108.504 24.3945C 109.871 24.3945 110.875 23.7734 111.516 22.5312L 111.516 16.7422C 110.852 15.5312 109.855 14.9258 108.527 14.9258C 107.473 14.9258 106.648 15.3359 106.055 16.1562C 105.461 16.9766 105.164 18.1914 105.164 19.8008Z"/>
</defs>
</svg>
